<?xml version="1.0" encoding="UTF-8" standalone="no"?>
<svg
   xmlns:dc="http://purl.org/dc/elements/1.1/"
   xmlns:cc="http://creativecommons.org/ns#"
   xmlns:rdf="http://www.w3.org/1999/02/22-rdf-syntax-ns#"
   xmlns:svg="http://www.w3.org/2000/svg"
   xmlns="http://www.w3.org/2000/svg"
   xmlns:sodipodi="http://sodipodi.sourceforge.net/DTD/sodipodi-0.dtd"
   xmlns:inkscape="http://www.inkscape.org/namespaces/inkscape"
   width="190mm"
   height="80mm"
   viewBox="0 0 190 80.000001"
   version="1.1"
   id="svg8"
   inkscape:version="1.0.2 (e86c870879, 2021-01-15)"
   sodipodi:docname="addon-operator-collapsed.svg"
   inkscape:export-filename="/home/nschieder/addon-operator.png"
   inkscape:export-xdpi="96"
   inkscape:export-ydpi="96">
  <defs
     id="defs2">
    <style
       id="style833">.cls-1{fill:#e00;}</style>
    <filter
       inkscape:collect="always"
       style="color-interpolation-filters:sRGB"
       id="filter1001"
       x="-9.3389241e-07"
       width="1.0000019"
       y="-1.6781917e-06"
       height="1.0000035">
      <feGaussianBlur
         inkscape:collect="always"
         stdDeviation="4.1846173e-05"
         id="feGaussianBlur1003" />
    </filter>
    <filter
       inkscape:collect="always"
       style="color-interpolation-filters:sRGB"
       id="filter1001-8"
       x="-9.3389241e-07"
       width="1.0000019"
       y="-1.6781917e-06"
       height="1.0000035">
      <feGaussianBlur
         inkscape:collect="always"
         stdDeviation="4.1846173e-05"
         id="feGaussianBlur1003-3" />
    </filter>
  </defs>
  <sodipodi:namedview
     id="base"
     pagecolor="#ffffff"
     bordercolor="#666666"
     borderopacity="1.0"
     inkscape:pageopacity="0.0"
     inkscape:pageshadow="2"
     inkscape:zoom="0.9899495"
     inkscape:cx="139.99869"
     inkscape:cy="214.93153"
     inkscape:document-units="mm"
     inkscape:current-layer="text923"
     inkscape:document-rotation="0"
     showgrid="false"
     inkscape:window-width="2161"
     inkscape:window-height="1205"
     inkscape:window-x="26"
     inkscape:window-y="23"
     inkscape:window-maximized="0"
     showguides="true"
     inkscape:guide-bbox="true" />
  <metadata
     id="metadata5">
    <rdf:RDF>
      <cc:Work
         rdf:about="">
        <dc:format>image/svg+xml</dc:format>
        <dc:type
           rdf:resource="http://purl.org/dc/dcmitype/StillImage" />
        <dc:title></dc:title>
      </cc:Work>
    </rdf:RDF>
  </metadata>
  <g
     inkscape:label="Layer 1"
     inkscape:groupmode="layer"
     id="layer1"
     style="display:inline"
     transform="translate(-14.346677,-40.336989)" />
  <g
     inkscape:groupmode="layer"
     id="layer2"
     inkscape:label="Layer 2"
     style="display:inline"
     transform="translate(-14.346677,-40.336989)">
    <path
       d="m 26.390213,85.865393 c 2.051049,0 2.745217,-1.099 3.581997,-1.93366 1.705014,-1.71129 3.802208,-0.98357 3.802208,1.77632 v 12.74046 h 12.740421 c 2.757805,0 3.487626,-2.09723 1.776319,-3.80219 -0.834681,-0.83679 -1.933602,-1.53098 -1.933602,-3.58202 0,-2.27962 2.323684,-5.19891 6.29157,-5.19891 3.967875,0 6.291567,2.91929 6.291567,5.19891 0,2.05104 -1.09893,2.74523 -1.933611,3.58202 -1.711306,1.70496 -0.983583,3.80219 1.77632,3.80219 h 12.740427 v -12.74046 c 0,-2.75782 -2.097196,-3.48761 -3.802206,-1.77632 -0.836781,0.83466 -1.530952,1.93366 -3.581997,1.93366 -2.279647,0 -5.198933,-2.3237 -5.198933,-6.29157 0,-3.96795 2.919286,-6.29157 5.198933,-6.29157 2.051045,0 2.745216,1.09892 3.581997,1.93357 1.70501,1.71129 3.802206,0.98358 3.802206,-1.77632 V 60.699113 H 58.783402 c -2.757804,0 -3.487626,-2.09724 -1.77632,-3.80221 0.834681,-0.83678 1.933611,-1.53098 1.933611,-3.58201 0,-2.27962 -2.323692,-5.1989 -6.291567,-5.1989 -3.967886,0 -6.29157,2.91928 -6.29157,5.1989 0,2.05103 1.098921,2.74523 1.933602,3.58201 1.711307,1.70497 0.983584,3.80221 -1.776319,3.80221 H 33.774418 v 12.74039 c 0,2.75784 -2.097194,3.48761 -3.802208,1.77632 -0.83678,-0.83465 -1.530948,-1.93357 -3.581997,-1.93357 -2.279644,0 -5.198931,2.32362 -5.198931,6.29157 0,3.96787 2.919287,6.29157 5.198931,6.29157 z"
       id="path910"
       style="fill:#ee0000;fill-opacity:1;stroke-width:2.09719" />
    <g
       aria-label="Addon
"
       transform="matrix(1.066536,0,0,1.066536,-12.629429,2.930061)"
       id="text923"
       style="font-size:25.4693px;line-height:1;font-family:sans-serif;letter-spacing:0px;stroke-width:0.684796;filter:url(#filter1001-8)">
      <path
         d="m 87.826404,72.471756 7.594479,-18.52312 h 5.212937 l 7.48863,18.52312 h -4.92186 l -1.69354,-4.47201 h -7.224016 l -1.720004,4.47201 z m 7.832633,-8.097249 h 4.498473 l -2.222775,-5.927399 z"
         style="font-style:normal;font-variant:normal;font-weight:900;font-stretch:normal;font-size:26.4616px;font-family:'Red Hat Display';-inkscape-font-specification:'Red Hat Display Heavy';stroke-width:0.684796"
         id="path950" />
      <path
         d="m 118.73349,72.471756 v -1.032002 q -0.82031,0.582155 -1.77293,0.899694 -0.95262,0.317539 -1.98462,0.317539 -1.48185,0 -2.80493,-0.555693 -1.29662,-0.555694 -2.2757,-1.534773 -0.95261,-0.979079 -1.50831,-2.275698 -0.55569,-1.32308 -0.55569,-2.831391 0,-1.508311 0.55569,-2.804929 0.58216,-1.32308 1.56124,-2.275698 0.97908,-0.979079 2.30216,-1.534773 1.34954,-0.555693 2.85785,-0.555693 0.97908,0 1.87877,0.238154 0.8997,0.238155 1.69355,0.688002 v -5.265859 l 4.28678,-0.926156 v 19.449276 z m -6.69479,-7.012324 q 0,1.508311 1.05847,2.540314 1.08492,1.00554 2.6197,1.00554 0.89969,0 1.64062,-0.264616 0.74092,-0.291077 1.32308,-0.846771 v -4.895396 q -0.5557,-0.50277 -1.32308,-0.793848 -0.76739,-0.291077 -1.64062,-0.291077 -1.56124,0 -2.6197,1.032002 -1.05847,1.005541 -1.05847,2.513852 z"
         style="font-style:normal;font-variant:normal;font-weight:900;font-stretch:normal;font-size:26.4616px;font-family:'Red Hat Display';-inkscape-font-specification:'Red Hat Display Heavy';stroke-width:0.684796"
         id="path952" />
      <path
         d="m 135.88057,72.471756 v -1.032002 q -0.82031,0.582155 -1.77292,0.899694 -0.95262,0.317539 -1.98462,0.317539 -1.48185,0 -2.80493,-0.555693 -1.29662,-0.555694 -2.2757,-1.534773 -0.95262,-0.979079 -1.50831,-2.275698 -0.55569,-1.32308 -0.55569,-2.831391 0,-1.508311 0.55569,-2.804929 0.58215,-1.32308 1.56123,-2.275698 0.97908,-0.979079 2.30216,-1.534773 1.34954,-0.555693 2.85786,-0.555693 0.97907,0 1.87877,0.238154 0.89969,0.238155 1.69354,0.688002 v -5.265859 l 4.28678,-0.926156 v 19.449276 z m -6.69478,-7.012324 q 0,1.508311 1.05846,2.540314 1.08493,1.00554 2.6197,1.00554 0.8997,0 1.64062,-0.264616 0.74093,-0.291077 1.32308,-0.846771 v -4.895396 q -0.55569,-0.50277 -1.32308,-0.793848 -0.76739,-0.291077 -1.64062,-0.291077 -1.56123,0 -2.6197,1.032002 -1.05846,1.005541 -1.05846,2.513852 z"
         style="font-style:normal;font-variant:normal;font-weight:900;font-stretch:normal;font-size:26.4616px;font-family:'Red Hat Display';-inkscape-font-specification:'Red Hat Display Heavy';stroke-width:0.684796"
         id="path954" />
      <path
         d="m 142.12548,65.485894 q 0,-1.508311 0.58215,-2.831391 0.60862,-1.349542 1.61416,-2.328621 1.032,-0.979079 2.40801,-1.534773 1.40246,-0.582155 2.99016,-0.582155 1.58769,0 2.9637,0.582155 1.40246,0.555694 2.408,1.534773 1.032,0.979079 1.61416,2.328621 0.60862,1.32308 0.60862,2.831391 0,1.508311 -0.60862,2.857852 -0.58216,1.32308 -1.61416,2.30216 -1.00554,0.979079 -2.408,1.534772 -1.37601,0.555694 -2.9637,0.555694 -1.5877,0 -2.99016,-0.555694 -1.37601,-0.555693 -2.40801,-1.534772 -1.00554,-0.97908 -1.61416,-2.30216 -0.58215,-1.349541 -0.58215,-2.857852 z m 7.59448,3.545854 q 1.42892,0 2.408,-1.032002 1.00554,-1.032003 1.00554,-2.513852 0,-1.508311 -1.00554,-2.540314 -0.97908,-1.032002 -2.408,-1.032002 -1.42893,0 -2.43447,1.032002 -0.97908,1.032003 -0.97908,2.540314 0,1.481849 0.97908,2.513852 1.00554,1.032002 2.43447,1.032002 z"
         style="font-style:normal;font-variant:normal;font-weight:900;font-stretch:normal;font-size:26.4616px;font-family:'Red Hat Display';-inkscape-font-specification:'Red Hat Display Heavy';stroke-width:0.684796"
         id="path956" />
      <path
         d="M 159.32551,72.471756 V 58.47357 h 4.28678 v 0.952618 q 0.76738,-0.582156 1.72,-0.899695 0.97908,-0.317539 2.03754,-0.317539 2.46093,0 4.02217,1.587696 1.56123,1.587696 1.56123,4.048625 v 8.626481 h -4.28678 V 64.42743 q 0,-1.137849 -0.71446,-1.825851 -0.688,-0.714463 -1.82585,-0.714463 -0.82031,0 -1.45539,0.291078 -0.63508,0.291077 -1.05846,0.820309 v 9.473253 z"
         style="font-style:normal;font-variant:normal;font-weight:900;font-stretch:normal;font-size:26.4616px;font-family:'Red Hat Display';-inkscape-font-specification:'Red Hat Display Heavy';stroke-width:0.684796"
         id="path958" />
    </g>
    <g
       aria-label="Operator"
       id="text912"
       style="font-size:28.2222px;line-height:1.25;font-family:sans-serif;letter-spacing:0px;stroke-width:0.264583">
      <path
         d="m 101.07674,99.199943 q 0,2.116667 -0.81845,4.007557 -0.790219,1.86266 -2.173107,3.24555 -1.382888,1.35466 -3.273775,2.14489 -1.890888,0.79022 -4.035775,0.79022 -2.144887,0 -4.035774,-0.79022 -1.890888,-0.79023 -3.273776,-2.14489 -1.354665,-1.38289 -2.173109,-3.24555 -0.790222,-1.89089 -0.790222,-4.007557 0,-2.116665 0.790222,-3.97933 0.818444,-1.890888 2.173109,-3.245553 1.382888,-1.382888 3.273776,-2.17311 1.890887,-0.790221 4.035774,-0.790221 2.144887,0 4.035775,0.790221 1.890887,0.790222 3.273775,2.17311 1.382888,1.354665 2.173107,3.245553 0.81845,1.862665 0.81845,3.97933 z m -3.019779,0 q 0,-1.580443 -0.564444,-2.935109 -0.564444,-1.382888 -1.552221,-2.370665 -0.959555,-1.015999 -2.314221,-1.580443 -1.326443,-0.564444 -2.850442,-0.564444 -1.523999,0 -2.850442,0.564444 -1.326443,0.564444 -2.31422,1.580443 -0.959555,0.987777 -1.523999,2.370665 -0.564444,1.354666 -0.564444,2.935109 0,1.580447 0.564444,2.963327 0.564444,1.35467 1.523999,2.34245 0.987777,0.98777 2.31422,1.58044 1.326443,0.56444 2.850442,0.56444 1.523999,0 2.850442,-0.56444 1.354666,-0.59267 2.314221,-1.58044 0.987777,-0.98778 1.552221,-2.34245 0.564444,-1.38288 0.564444,-2.963327 z"
         style="font-style:normal;font-variant:normal;font-weight:500;font-stretch:normal;font-size:28.2222px;font-family:'Red Hat Display';-inkscape-font-specification:'Red Hat Display Medium';stroke-width:0.264583"
         id="path961" />
      <path
         d="M 103.89893,114.91971 V 94.712613 h 2.79399 v 1.382888 q 0.87489,-0.790222 2.00378,-1.185333 1.12889,-0.423333 2.39889,-0.423333 1.524,0 2.85044,0.592667 1.32644,0.564444 2.286,1.552221 0.98777,0.987777 1.55222,2.342442 0.56444,1.354665 0.56444,2.906885 0,1.55222 -0.56444,2.93511 -0.56445,1.35467 -1.55222,2.34244 -0.95956,0.98778 -2.31422,1.58045 -1.35467,0.56444 -2.87867,0.56444 -1.18533,0 -2.31422,-0.36689 -1.10066,-0.36689 -2.00377,-1.04422 v 7.02733 z m 6.82977,-17.977543 q -1.21356,0 -2.25778,0.451555 -1.04422,0.451555 -1.74977,1.269999 v 6.491109 q 0.67733,0.79022 1.72155,1.24177 1.07244,0.45156 2.286,0.45156 2.06022,0 3.44311,-1.41111 1.41111,-1.41111 1.41111,-3.52778 0,-2.116661 -1.41111,-3.527771 -1.41111,-1.439332 -3.44311,-1.439332 z"
         style="font-style:normal;font-variant:normal;font-weight:500;font-stretch:normal;font-size:28.2222px;font-family:'Red Hat Display';-inkscape-font-specification:'Red Hat Display Medium';stroke-width:0.264583"
         id="path963" />
      <path
         d="m 133.53216,107.44083 q -1.24178,0.95955 -2.59644,1.43933 -1.35467,0.45155 -2.96333,0.45155 -1.58045,0 -2.96334,-0.56444 -1.38288,-0.59267 -2.39888,-1.58044 -1.016,-0.98778 -1.60867,-2.34245 -0.56444,-1.38288 -0.56444,-2.96333 0,-1.55222 0.56444,-2.906885 0.56445,-1.354665 1.524,-2.342442 0.95956,-0.987777 2.286,-1.552221 1.32644,-0.592667 2.82222,-0.592667 1.46755,0 2.73755,0.592667 1.29822,0.564444 2.20133,1.580443 0.93134,0.987777 1.46756,2.370665 0.53622,1.38289 0.53622,2.96333 v 0.81844 h -11.34532 q 0.28222,1.778 1.63688,2.96334 1.35467,1.15711 3.21733,1.15711 1.04423,0 2.00378,-0.33867 0.95956,-0.33867 1.63689,-0.93133 z M 127.57727,96.8575 q -1.60866,0 -2.82222,1.072444 -1.18533,1.072443 -1.49577,2.765776 h 8.5231 Q 131.47194,99.058832 130.28661,97.958166 129.1295,96.8575 127.57727,96.8575 Z"
         style="font-style:normal;font-variant:normal;font-weight:500;font-stretch:normal;font-size:28.2222px;font-family:'Red Hat Display';-inkscape-font-specification:'Red Hat Display Medium';stroke-width:0.264583"
         id="path965" />
      <path
         d="M 137.25749,109.07771 V 94.712613 h 2.82222 v 1.834443 q 0.64911,-1.044221 1.66511,-1.580443 1.016,-0.564444 2.286,-0.564444 0.45155,0 0.79022,0.05644 0.33867,0.05644 0.64911,0.169333 v 2.539998 q -0.39511,-0.141111 -0.81844,-0.225777 -0.42334,-0.08467 -0.84667,-0.08467 -1.24178,0 -2.22955,0.677333 -0.95956,0.649111 -1.49578,1.947332 v 9.595545 z"
         style="font-style:normal;font-variant:normal;font-weight:500;font-stretch:normal;font-size:28.2222px;font-family:'Red Hat Display';-inkscape-font-specification:'Red Hat Display Medium';stroke-width:0.264583"
         id="path967" />
      <path
         d="m 151.67894,109.33171 q -2.34244,0 -3.81,-1.21355 -1.46755,-1.21356 -1.46755,-3.16089 0,-2.032 1.55222,-3.18911 1.55222,-1.18533 4.26155,-1.18533 1.04422,0 2.032,0.22578 0.98778,0.19755 1.89089,0.56444 v -1.523997 q 0,-1.523998 -0.90311,-2.285998 -0.90311,-0.761999 -2.59645,-0.761999 -0.98777,0 -2.06022,0.310444 -1.07244,0.282222 -2.39888,0.90311 l -1.04423,-2.116665 q 1.60867,-0.761999 3.048,-1.100665 1.43933,-0.366889 2.85044,-0.366889 2.794,0 4.318,1.354666 1.55222,1.326443 1.55222,3.781774 v 9.510879 h -2.76577 v -1.24177 q -0.95956,0.762 -2.06022,1.12888 -1.10067,0.36689 -2.39889,0.36689 z m -2.56822,-4.43088 q 0,1.04422 0.87489,1.69333 0.90311,0.64911 2.34244,0.64911 1.12889,0 2.08844,-0.33867 0.95956,-0.33866 1.72156,-1.016 v -2.48355 q -0.81845,-0.45155 -1.72156,-0.64911 -0.90311,-0.22578 -1.97555,-0.22578 -1.524,0 -2.42711,0.64911 -0.90311,0.64911 -0.90311,1.72156 z"
         style="font-style:normal;font-variant:normal;font-weight:500;font-stretch:normal;font-size:28.2222px;font-family:'Red Hat Display';-inkscape-font-specification:'Red Hat Display Medium';stroke-width:0.264583"
         id="path969" />
      <path
         d="m 163.44757,105.52172 v -8.438442 h -3.04799 v -2.370665 h 3.04799 v -3.668886 l 2.794,-0.677333 v 4.346219 h 4.23333 v 2.370665 h -4.23333 v 7.789332 q 0,1.10066 0.47978,1.55222 0.508,0.45155 1.63689,0.45155 0.59266,0 1.04422,-0.0564 0.47978,-0.0847 1.016,-0.28223 v 2.37067 q -0.56445,0.19756 -1.32645,0.31044 -0.73377,0.11289 -1.35466,0.11289 -2.08844,0 -3.18911,-0.95955 -1.10067,-0.98778 -1.10067,-2.85044 z"
         style="font-style:normal;font-variant:normal;font-weight:500;font-stretch:normal;font-size:28.2222px;font-family:'Red Hat Display';-inkscape-font-specification:'Red Hat Display Medium';stroke-width:0.264583"
         id="path971" />
      <path
         d="m 171.60374,101.88105 q 0,-1.55222 0.56444,-2.906885 0.59267,-1.382888 1.60867,-2.370665 1.016,-1.015999 2.37066,-1.580443 1.38289,-0.592666 2.93511,-0.592666 1.55222,0 2.90689,0.592666 1.38288,0.564444 2.37066,1.580443 1.016,0.987777 1.58045,2.370665 0.59266,1.354665 0.59266,2.906885 0,1.58045 -0.59266,2.96333 -0.56445,1.35467 -1.58045,2.37067 -0.98778,0.98777 -2.37066,1.58044 -1.35467,0.56445 -2.90689,0.56445 -1.55222,0 -2.93511,-0.56445 -1.35466,-0.59267 -2.37066,-1.58044 -1.016,-1.016 -1.60867,-2.37067 -0.56444,-1.38288 -0.56444,-2.96333 z m 7.47888,4.99533 q 1.94733,0 3.302,-1.43933 1.38289,-1.46756 1.38289,-3.556 0,-2.088441 -1.38289,-3.527773 -1.35467,-1.439332 -3.302,-1.439332 -1.94733,0 -3.33022,1.439332 -1.38289,1.439332 -1.38289,3.527773 0,2.08844 1.35467,3.556 1.38289,1.43933 3.35844,1.43933 z"
         style="font-style:normal;font-variant:normal;font-weight:500;font-stretch:normal;font-size:28.2222px;font-family:'Red Hat Display';-inkscape-font-specification:'Red Hat Display Medium';stroke-width:0.264583"
         id="path973" />
      <path
         d="M 189.21439,109.07771 V 94.712613 h 2.82222 v 1.834443 q 0.64911,-1.044221 1.66511,-1.580443 1.016,-0.564444 2.286,-0.564444 0.45155,0 0.79022,0.05644 0.33866,0.05644 0.64911,0.169333 v 2.539998 q -0.39511,-0.141111 -0.81845,-0.225777 -0.42333,-0.08467 -0.84666,-0.08467 -1.24178,0 -2.22956,0.677333 -0.95955,0.649111 -1.49577,1.947332 v 9.595545 z"
         style="font-style:normal;font-variant:normal;font-weight:500;font-stretch:normal;font-size:28.2222px;font-family:'Red Hat Display';-inkscape-font-specification:'Red Hat Display Medium';stroke-width:0.264583"
         id="path975" />
    </g>
  </g>
</svg>
